<svg id="Layer_1" data-name="Layer 1" xmlns="http://www.w3.org/2000/svg" viewBox="0 0 563.2 716.8"><title>Resource</title><path d="M539.23,0h-512A25.57,25.57,0,0,0,1.63,25.6V691.2a25.58,25.58,0,0,0,25.6,25.6h512a25.57,25.57,0,0,0,25.6-25.6V25.6A25.57,25.57,0,0,0,539.23,0Zm-32,659.2h-448V57.6h448Zm0,0" transform="translate(-1.63)"/><path d="M152.57,207a27.85,27.85,0,1,0,27.85-27.85A27.85,27.85,0,0,0,152.57,207Zm0,0" transform="translate(-1.63)"/><path d="M152.57,307.23a27.85,27.85,0,1,0,27.85-27.85,27.85,27.85,0,0,0-27.85,27.85Zm0,0" transform="translate(-1.63)"/><path d="M152.57,407.48a27.85,27.85,0,1,0,27.85-27.85,27.85,27.85,0,0,0-27.85,27.85Zm0,0" transform="translate(-1.63)"/><path d="M412.33,396.57h-177a2.43,2.43,0,0,0-2.42,2.42v17a2.43,2.43,0,0,0,2.42,2.42h177a2.43,2.43,0,0,0,2.43-2.42V399a2.43,2.43,0,0,0-2.43-2.42Z" transform="translate(-1.63)"/><path d="M412.33,197.36h-177a2.43,2.43,0,0,0-2.42,2.43v17a2.43,2.43,0,0,0,2.42,2.42h177a2.43,2.43,0,0,0,2.43-2.42v-17a2.43,2.43,0,0,0-2.43-2.43Z" transform="translate(-1.63)"/><path d="M412.33,296.32h-177a2.43,2.43,0,0,0-2.42,2.42v17a2.43,2.43,0,0,0,2.42,2.42h177a2.43,2.43,0,0,0,2.43-2.42v-17a2.43,2.43,0,0,0-2.43-2.42Z" transform="translate(-1.63)"/><path d="M151.7,508.61a28.72,28.72,0,1,0,28.72-28.72,28.73,28.73,0,0,0-28.72,28.72Zm0,0" transform="translate(-1.63)"/><path d="M412.33,496.82h-177a2.43,2.43,0,0,0-2.42,2.42v17a2.43,2.43,0,0,0,2.42,2.42h177a2.43,2.43,0,0,0,2.43-2.42v-17a2.43,2.43,0,0,0-2.43-2.42Z" transform="translate(-1.63)"/></svg>