<svg id="Layer_1" data-name="Layer 1" xmlns="http://www.w3.org/2000/svg" xmlns:xlink="http://www.w3.org/1999/xlink" viewBox="0 0 716.8 563.2"><defs><clipPath id="clip-path"><rect x="163.25" y="233.23" width="105.13" height="101.33" transform="translate(-91.13 102.35) rotate(-22.16)" style="fill:none"/></clipPath><clipPath id="clip-path-2"><rect x="449.41" y="102.6" width="105.13" height="101.33" transform="translate(-20.74 200.62) rotate(-22.16)" style="fill:none"/></clipPath><clipPath id="clip-path-3"><rect x="305.43" y="356.3" width="105.13" height="101.33" transform="translate(-127.04 165.05) rotate(-22.16)" style="fill:none"/></clipPath></defs><title>Artboard 1</title><path d="M691.2,0H25.6A25.57,25.57,0,0,0,0,25.6v512a25.57,25.57,0,0,0,25.6,25.6H691.2a25.57,25.57,0,0,0,25.6-25.6V25.6A25.58,25.58,0,0,0,691.2,0Zm-32,505-601.6.6V57.6H659.2ZM57.6,57.6m0,448"/><path d="M410.8,333.07V234.72a3.4,3.4,0,0,0-3.39-3.39H309.06a3.4,3.4,0,0,0-3.39,3.39v98.35a3.4,3.4,0,0,0,3.39,3.39h98.35"/><rect x="314.59" y="240.72" width="86.82" height="86.82" style="fill:#fff"/><path d="M407.41,336.46a3.4,3.4,0,0,0,3.39-3.39"/><g style="clip-path:url(#clip-path)"><path d="M206.92,342.07a3.75,3.75,0,0,1-5.08-2.66l-7-31.71-29.86-12.32a3.75,3.75,0,0,1-.47-6.7l27.66-16.3L194.31,240a3.91,3.91,0,0,1,6.25-2.54l24.14,21.6,31.18-7.66a3.75,3.75,0,0,1,4.34,5.13l-12.76,29.68,16.72,27a3.75,3.75,0,0,1-1.32,6.05l-.07,0a3.77,3.77,0,0,1-1.8.26l-32-3.27L208.39,341a3.77,3.77,0,0,1-1.47,1.07Zm-32.15-50.76,24.7,10.2a3.76,3.76,0,0,1,2.23,2.65l5.82,26.17,17-20.36a3.75,3.75,0,0,1,3.26-1.33l26.39,2.7-14.12-22.79a3.75,3.75,0,0,1-.26-3.46l10.55-24.55-25.78,6.33a3.75,3.75,0,0,1-3.4-.85l-19.89-17.8-1.8,26.63a3.75,3.75,0,0,1-1.84,3Zm0,0"/></g><path d="M502.81,232.24A52.16,52.16,0,1,0,555,284.4a52.16,52.16,0,0,0-52.16-52.16Z"/><path d="M534.15,315.85A44.06,44.06,0,1,1,547,284.71a43.76,43.76,0,0,1-12.89,31.14Z" style="fill:#fff"/><path d="M266.94,206.42V108.07a3.4,3.4,0,0,0-3.39-3.39H165.2a3.4,3.4,0,0,0-3.39,3.39v98.35a3.4,3.4,0,0,0,3.39,3.39h98.35"/><rect x="170.73" y="114.07" width="86.82" height="86.82" style="fill:#fff"/><path d="M263.55,209.81a3.4,3.4,0,0,0,3.39-3.39"/><g style="clip-path:url(#clip-path-2)"><path d="M493.08,211.44a3.75,3.75,0,0,1-5.08-2.66l-7-31.71L451.1,164.74a3.75,3.75,0,0,1-.47-6.7l27.66-16.3,2.18-32.33a3.91,3.91,0,0,1,6.25-2.54l24.14,21.6L542,120.82a3.75,3.75,0,0,1,4.34,5.13l-12.76,29.68,16.72,27a3.75,3.75,0,0,1-1.32,6.05l-.07,0a3.77,3.77,0,0,1-1.8.26l-32-3.27-20.61,24.69a3.77,3.77,0,0,1-1.47,1.07Zm-32.15-50.76,24.7,10.2a3.76,3.76,0,0,1,2.23,2.65l5.82,26.17,17-20.36a3.75,3.75,0,0,1,3.26-1.33l26.39,2.7-14.12-22.79a3.75,3.75,0,0,1-.26-3.46l10.55-24.55-25.78,6.33a3.75,3.75,0,0,1-3.4-.85l-19.89-17.8-1.8,26.63a3.75,3.75,0,0,1-1.84,3Zm0,0"/></g><path d="M358.24,105.08a52.16,52.16,0,1,0,52.16,52.16,52.16,52.16,0,0,0-52.16-52.16Z"/><path d="M389.57,188.7a44.06,44.06,0,1,1,12.89-31.14,43.76,43.76,0,0,1-12.89,31.14Z" style="fill:#fff"/><path d="M554.78,460.46V362.11a3.4,3.4,0,0,0-3.39-3.39H453a3.4,3.4,0,0,0-3.39,3.39v98.35a3.4,3.4,0,0,0,3.39,3.39h98.35"/><rect x="458.56" y="368.11" width="86.82" height="86.82" style="fill:#fff"/><path d="M551.39,463.85a3.4,3.4,0,0,0,3.39-3.39"/><g style="clip-path:url(#clip-path-3)"><path d="M349.11,465.14a3.75,3.75,0,0,1-5.08-2.66l-7-31.71-29.86-12.32a3.75,3.75,0,0,1-.47-6.7l27.66-16.3,2.18-32.33a3.91,3.91,0,0,1,6.25-2.54l24.14,21.6,31.18-7.66a3.75,3.75,0,0,1,4.34,5.13l-12.76,29.68,16.72,27a3.75,3.75,0,0,1-1.32,6.05l-.07,0a3.77,3.77,0,0,1-1.8.26l-32-3.27-20.61,24.69a3.77,3.77,0,0,1-1.47,1.07ZM317,414.38l24.7,10.2a3.76,3.76,0,0,1,2.23,2.65l5.82,26.17,17-20.36a3.75,3.75,0,0,1,3.26-1.33l26.39,2.7-14.12-22.79a3.75,3.75,0,0,1-.26-3.46l10.55-24.55-25.78,6.33a3.75,3.75,0,0,1-3.4-.85l-19.89-17.8-1.8,26.63a3.75,3.75,0,0,1-1.84,3Zm0,0"/></g><path d="M214.38,358a52.16,52.16,0,1,0,52.16,52.16A52.16,52.16,0,0,0,214.38,358Z"/><path d="M245.72,441.6a44.06,44.06,0,1,1,12.89-31.14,43.76,43.76,0,0,1-12.89,31.14Z" style="fill:#fff"/></svg>